<mxfile host="app.diagrams.net" modified="2022-07-31T13:48:44.622Z" agent="5.0 (Macintosh; Intel Mac OS X 10_15_7) AppleWebKit/605.1.15 (KHTML, like Gecko) Version/15.5 Safari/605.1.15" etag="25jjolaVCyLRwZe7ORlP" version="20.2.2" type="github">
  <diagram id="cmGXkni1iuYy2KnNHQrB" name="Page-1">
    <mxGraphModel dx="946" dy="622" grid="1" gridSize="10" guides="1" tooltips="1" connect="1" arrows="1" fold="1" page="1" pageScale="1" pageWidth="827" pageHeight="1169" math="0" shadow="0">
      <root>
        <mxCell id="0" />
        <mxCell id="1" parent="0" />
        <mxCell id="N73i_R2ZQ_WmX0FleawG-1" value="tblstudents" style="swimlane;fontStyle=1;childLayout=stackLayout;horizontal=1;startSize=26;fillColor=#0050ef;horizontalStack=0;resizeParent=1;resizeParentMax=0;resizeLast=0;collapsible=1;marginBottom=0;fontColor=#ffffff;strokeColor=#001DBC;" parent="1" vertex="1">
          <mxGeometry x="149" y="174" width="140" height="130" as="geometry" />
        </mxCell>
        <mxCell id="N73i_R2ZQ_WmX0FleawG-2" value="StudentID" style="text;align=left;verticalAlign=top;spacingLeft=4;spacingRight=4;overflow=hidden;rotatable=0;points=[[0,0.5],[1,0.5]];portConstraint=eastwest;fillColor=#f5f5f5;fontColor=#333333;strokeColor=none;" parent="N73i_R2ZQ_WmX0FleawG-1" vertex="1">
          <mxGeometry y="26" width="140" height="26" as="geometry" />
        </mxCell>
        <mxCell id="N73i_R2ZQ_WmX0FleawG-3" value="StudentName" style="text;align=left;verticalAlign=top;spacingLeft=4;spacingRight=4;overflow=hidden;rotatable=0;points=[[0,0.5],[1,0.5]];portConstraint=eastwest;fillColor=#f5f5f5;fontColor=#333333;strokeColor=none;" parent="N73i_R2ZQ_WmX0FleawG-1" vertex="1">
          <mxGeometry y="52" width="140" height="26" as="geometry" />
        </mxCell>
        <mxCell id="N73i_R2ZQ_WmX0FleawG-18" value="RollIDÂ " style="text;strokeColor=none;fillColor=#f5f5f5;align=left;verticalAlign=top;spacingLeft=4;spacingRight=4;overflow=hidden;rotatable=0;points=[[0,0.5],[1,0.5]];portConstraint=eastwest;fontColor=#333333;" parent="N73i_R2ZQ_WmX0FleawG-1" vertex="1">
          <mxGeometry y="78" width="140" height="26" as="geometry" />
        </mxCell>
        <mxCell id="N73i_R2ZQ_WmX0FleawG-4" value="fK_classID" style="text;strokeColor=none;fillColor=#f5f5f5;align=left;verticalAlign=top;spacingLeft=4;spacingRight=4;overflow=hidden;rotatable=0;points=[[0,0.5],[1,0.5]];portConstraint=eastwest;fontColor=#333333;" parent="N73i_R2ZQ_WmX0FleawG-1" vertex="1">
          <mxGeometry y="104" width="140" height="26" as="geometry" />
        </mxCell>
        <mxCell id="N73i_R2ZQ_WmX0FleawG-5" value="tblclasses" style="swimlane;fontStyle=1;childLayout=stackLayout;horizontal=1;startSize=26;fillColor=#0050ef;horizontalStack=0;resizeParent=1;resizeParentMax=0;resizeLast=0;collapsible=1;marginBottom=0;fontColor=#ffffff;strokeColor=#001DBC;" parent="1" vertex="1">
          <mxGeometry x="149" y="334" width="140" height="104" as="geometry" />
        </mxCell>
        <mxCell id="N73i_R2ZQ_WmX0FleawG-6" value="ClassID" style="text;strokeColor=none;fillColor=#f5f5f5;align=left;verticalAlign=top;spacingLeft=4;spacingRight=4;overflow=hidden;rotatable=0;points=[[0,0.5],[1,0.5]];portConstraint=eastwest;fontColor=#333333;" parent="N73i_R2ZQ_WmX0FleawG-5" vertex="1">
          <mxGeometry y="26" width="140" height="26" as="geometry" />
        </mxCell>
        <mxCell id="N73i_R2ZQ_WmX0FleawG-7" value="ClassName" style="text;strokeColor=none;fillColor=#f5f5f5;align=left;verticalAlign=top;spacingLeft=4;spacingRight=4;overflow=hidden;rotatable=0;points=[[0,0.5],[1,0.5]];portConstraint=eastwest;fontColor=#333333;" parent="N73i_R2ZQ_WmX0FleawG-5" vertex="1">
          <mxGeometry y="52" width="140" height="26" as="geometry" />
        </mxCell>
        <mxCell id="N73i_R2ZQ_WmX0FleawG-8" value="Section" style="text;strokeColor=none;fillColor=#f5f5f5;align=left;verticalAlign=top;spacingLeft=4;spacingRight=4;overflow=hidden;rotatable=0;points=[[0,0.5],[1,0.5]];portConstraint=eastwest;fontColor=#333333;" parent="N73i_R2ZQ_WmX0FleawG-5" vertex="1">
          <mxGeometry y="78" width="140" height="26" as="geometry" />
        </mxCell>
        <mxCell id="N73i_R2ZQ_WmX0FleawG-9" value="tblsubjectcombination" style="swimlane;fontStyle=1;childLayout=stackLayout;horizontal=1;startSize=26;fillColor=#0050ef;horizontalStack=0;resizeParent=1;resizeParentMax=0;resizeLast=0;collapsible=1;marginBottom=0;fontColor=#ffffff;strokeColor=#001DBC;" parent="1" vertex="1">
          <mxGeometry x="149" y="484" width="140" height="104" as="geometry" />
        </mxCell>
        <mxCell id="N73i_R2ZQ_WmX0FleawG-10" value="ID" style="text;strokeColor=none;fillColor=#f5f5f5;align=left;verticalAlign=top;spacingLeft=4;spacingRight=4;overflow=hidden;rotatable=0;points=[[0,0.5],[1,0.5]];portConstraint=eastwest;fontColor=#333333;" parent="N73i_R2ZQ_WmX0FleawG-9" vertex="1">
          <mxGeometry y="26" width="140" height="26" as="geometry" />
        </mxCell>
        <mxCell id="N73i_R2ZQ_WmX0FleawG-11" value="fk_classID" style="text;strokeColor=none;fillColor=#f5f5f5;align=left;verticalAlign=top;spacingLeft=4;spacingRight=4;overflow=hidden;rotatable=0;points=[[0,0.5],[1,0.5]];portConstraint=eastwest;fontColor=#333333;" parent="N73i_R2ZQ_WmX0FleawG-9" vertex="1">
          <mxGeometry y="52" width="140" height="26" as="geometry" />
        </mxCell>
        <mxCell id="N73i_R2ZQ_WmX0FleawG-12" value="fk_subjectID" style="text;strokeColor=none;fillColor=#f5f5f5;align=left;verticalAlign=top;spacingLeft=4;spacingRight=4;overflow=hidden;rotatable=0;points=[[0,0.5],[1,0.5]];portConstraint=eastwest;fontColor=#333333;" parent="N73i_R2ZQ_WmX0FleawG-9" vertex="1">
          <mxGeometry y="78" width="140" height="26" as="geometry" />
        </mxCell>
        <mxCell id="N73i_R2ZQ_WmX0FleawG-13" value="tblsubjects" style="swimlane;fontStyle=1;childLayout=stackLayout;horizontal=1;startSize=26;fillColor=#0050ef;horizontalStack=0;resizeParent=1;resizeParentMax=0;resizeLast=0;collapsible=1;marginBottom=0;fontColor=#ffffff;strokeColor=#001DBC;" parent="1" vertex="1">
          <mxGeometry x="149" y="639" width="140" height="104" as="geometry" />
        </mxCell>
        <mxCell id="N73i_R2ZQ_WmX0FleawG-14" value="SubjectID" style="text;strokeColor=none;fillColor=#f5f5f5;align=left;verticalAlign=top;spacingLeft=4;spacingRight=4;overflow=hidden;rotatable=0;points=[[0,0.5],[1,0.5]];portConstraint=eastwest;fontColor=#333333;" parent="N73i_R2ZQ_WmX0FleawG-13" vertex="1">
          <mxGeometry y="26" width="140" height="26" as="geometry" />
        </mxCell>
        <mxCell id="N73i_R2ZQ_WmX0FleawG-15" value="SubjectName" style="text;strokeColor=none;fillColor=#f5f5f5;align=left;verticalAlign=top;spacingLeft=4;spacingRight=4;overflow=hidden;rotatable=0;points=[[0,0.5],[1,0.5]];portConstraint=eastwest;fontColor=#333333;" parent="N73i_R2ZQ_WmX0FleawG-13" vertex="1">
          <mxGeometry y="52" width="140" height="26" as="geometry" />
        </mxCell>
        <mxCell id="N73i_R2ZQ_WmX0FleawG-16" value="SubjectCode" style="text;strokeColor=none;fillColor=#f5f5f5;align=left;verticalAlign=top;spacingLeft=4;spacingRight=4;overflow=hidden;rotatable=0;points=[[0,0.5],[1,0.5]];portConstraint=eastwest;fontColor=#333333;" parent="N73i_R2ZQ_WmX0FleawG-13" vertex="1">
          <mxGeometry y="78" width="140" height="26" as="geometry" />
        </mxCell>
        <mxCell id="N73i_R2ZQ_WmX0FleawG-19" value="tblresult" style="swimlane;fontStyle=1;childLayout=stackLayout;horizontal=1;startSize=26;fillColor=#0050ef;horizontalStack=0;resizeParent=1;resizeParentMax=0;resizeLast=0;collapsible=1;marginBottom=0;fontColor=#ffffff;strokeColor=#001DBC;" parent="1" vertex="1">
          <mxGeometry x="539" y="384" width="140" height="156" as="geometry" />
        </mxCell>
        <mxCell id="N73i_R2ZQ_WmX0FleawG-20" value="rID" style="text;strokeColor=none;fillColor=#f5f5f5;align=left;verticalAlign=top;spacingLeft=4;spacingRight=4;overflow=hidden;rotatable=0;points=[[0,0.5],[1,0.5]];portConstraint=eastwest;fontColor=#333333;" parent="N73i_R2ZQ_WmX0FleawG-19" vertex="1">
          <mxGeometry y="26" width="140" height="26" as="geometry" />
        </mxCell>
        <mxCell id="N73i_R2ZQ_WmX0FleawG-21" value="fk_studentID" style="text;strokeColor=none;fillColor=#f5f5f5;align=left;verticalAlign=top;spacingLeft=4;spacingRight=4;overflow=hidden;rotatable=0;points=[[0,0.5],[1,0.5]];portConstraint=eastwest;fontColor=#333333;" parent="N73i_R2ZQ_WmX0FleawG-19" vertex="1">
          <mxGeometry y="52" width="140" height="26" as="geometry" />
        </mxCell>
        <mxCell id="N73i_R2ZQ_WmX0FleawG-22" value="fk_classID" style="text;strokeColor=none;fillColor=#f5f5f5;align=left;verticalAlign=top;spacingLeft=4;spacingRight=4;overflow=hidden;rotatable=0;points=[[0,0.5],[1,0.5]];portConstraint=eastwest;fontColor=#333333;" parent="N73i_R2ZQ_WmX0FleawG-19" vertex="1">
          <mxGeometry y="78" width="140" height="26" as="geometry" />
        </mxCell>
        <mxCell id="N73i_R2ZQ_WmX0FleawG-23" value="fk_subjectID" style="text;strokeColor=none;fillColor=#f5f5f5;align=left;verticalAlign=top;spacingLeft=4;spacingRight=4;overflow=hidden;rotatable=0;points=[[0,0.5],[1,0.5]];portConstraint=eastwest;fontColor=#333333;" parent="N73i_R2ZQ_WmX0FleawG-19" vertex="1">
          <mxGeometry y="104" width="140" height="26" as="geometry" />
        </mxCell>
        <mxCell id="N73i_R2ZQ_WmX0FleawG-24" value="s_marks" style="text;strokeColor=none;fillColor=#f5f5f5;align=left;verticalAlign=top;spacingLeft=4;spacingRight=4;overflow=hidden;rotatable=0;points=[[0,0.5],[1,0.5]];portConstraint=eastwest;fontColor=#333333;" parent="N73i_R2ZQ_WmX0FleawG-19" vertex="1">
          <mxGeometry y="130" width="140" height="26" as="geometry" />
        </mxCell>
        <mxCell id="N73i_R2ZQ_WmX0FleawG-25" value="tbladmin" style="swimlane;fontStyle=1;childLayout=stackLayout;horizontal=1;startSize=26;fillColor=#0050ef;horizontalStack=0;resizeParent=1;resizeParentMax=0;resizeLast=0;collapsible=1;marginBottom=0;fontColor=#ffffff;strokeColor=#001DBC;" parent="1" vertex="1">
          <mxGeometry x="539" y="204" width="140" height="130" as="geometry" />
        </mxCell>
        <mxCell id="N73i_R2ZQ_WmX0FleawG-26" value="userId" style="text;strokeColor=none;fillColor=#f5f5f5;align=left;verticalAlign=top;spacingLeft=4;spacingRight=4;overflow=hidden;rotatable=0;points=[[0,0.5],[1,0.5]];portConstraint=eastwest;fontColor=#333333;" parent="N73i_R2ZQ_WmX0FleawG-25" vertex="1">
          <mxGeometry y="26" width="140" height="26" as="geometry" />
        </mxCell>
        <mxCell id="N73i_R2ZQ_WmX0FleawG-27" value="userName" style="text;strokeColor=none;fillColor=#f5f5f5;align=left;verticalAlign=top;spacingLeft=4;spacingRight=4;overflow=hidden;rotatable=0;points=[[0,0.5],[1,0.5]];portConstraint=eastwest;fontColor=#333333;" parent="N73i_R2ZQ_WmX0FleawG-25" vertex="1">
          <mxGeometry y="52" width="140" height="26" as="geometry" />
        </mxCell>
        <mxCell id="N73i_R2ZQ_WmX0FleawG-28" value="password" style="text;strokeColor=none;fillColor=#f5f5f5;align=left;verticalAlign=top;spacingLeft=4;spacingRight=4;overflow=hidden;rotatable=0;points=[[0,0.5],[1,0.5]];portConstraint=eastwest;fontColor=#333333;" parent="N73i_R2ZQ_WmX0FleawG-25" vertex="1">
          <mxGeometry y="78" width="140" height="26" as="geometry" />
        </mxCell>
        <mxCell id="N73i_R2ZQ_WmX0FleawG-29" value="displayName" style="text;strokeColor=none;fillColor=#f5f5f5;align=left;verticalAlign=top;spacingLeft=4;spacingRight=4;overflow=hidden;rotatable=0;points=[[0,0.5],[1,0.5]];portConstraint=eastwest;fontColor=#333333;" parent="N73i_R2ZQ_WmX0FleawG-25" vertex="1">
          <mxGeometry y="104" width="140" height="26" as="geometry" />
        </mxCell>
        <mxCell id="N73i_R2ZQ_WmX0FleawG-30" style="edgeStyle=orthogonalEdgeStyle;rounded=0;orthogonalLoop=1;jettySize=auto;html=1;entryX=0;entryY=0.5;entryDx=0;entryDy=0;strokeColor=#66B2FF;" parent="1" source="N73i_R2ZQ_WmX0FleawG-11" target="N73i_R2ZQ_WmX0FleawG-6" edge="1">
          <mxGeometry relative="1" as="geometry" />
        </mxCell>
        <mxCell id="N73i_R2ZQ_WmX0FleawG-31" style="edgeStyle=orthogonalEdgeStyle;rounded=0;orthogonalLoop=1;jettySize=auto;html=1;entryX=0;entryY=0.5;entryDx=0;entryDy=0;strokeColor=#66B2FF;" parent="1" source="N73i_R2ZQ_WmX0FleawG-12" target="N73i_R2ZQ_WmX0FleawG-14" edge="1">
          <mxGeometry relative="1" as="geometry" />
        </mxCell>
        <mxCell id="N73i_R2ZQ_WmX0FleawG-32" style="rounded=0;orthogonalLoop=1;jettySize=auto;html=1;entryX=1;entryY=0.5;entryDx=0;entryDy=0;edgeStyle=orthogonalEdgeStyle;strokeColor=#66B2FF;" parent="1" source="N73i_R2ZQ_WmX0FleawG-23" target="N73i_R2ZQ_WmX0FleawG-14" edge="1">
          <mxGeometry relative="1" as="geometry">
            <Array as="points">
              <mxPoint x="470" y="501" />
              <mxPoint x="470" y="678" />
            </Array>
          </mxGeometry>
        </mxCell>
        <mxCell id="N73i_R2ZQ_WmX0FleawG-33" style="edgeStyle=orthogonalEdgeStyle;rounded=0;orthogonalLoop=1;jettySize=auto;html=1;entryX=1;entryY=0.5;entryDx=0;entryDy=0;strokeColor=#66B2FF;" parent="1" source="N73i_R2ZQ_WmX0FleawG-22" target="N73i_R2ZQ_WmX0FleawG-6" edge="1">
          <mxGeometry relative="1" as="geometry">
            <Array as="points">
              <mxPoint x="470" y="475" />
              <mxPoint x="470" y="373" />
            </Array>
          </mxGeometry>
        </mxCell>
        <mxCell id="N73i_R2ZQ_WmX0FleawG-34" style="edgeStyle=orthogonalEdgeStyle;rounded=0;orthogonalLoop=1;jettySize=auto;html=1;entryX=1;entryY=0.5;entryDx=0;entryDy=0;strokeColor=#66B2FF;" parent="1" source="N73i_R2ZQ_WmX0FleawG-21" target="N73i_R2ZQ_WmX0FleawG-2" edge="1">
          <mxGeometry relative="1" as="geometry">
            <Array as="points">
              <mxPoint x="480" y="449" />
              <mxPoint x="480" y="213" />
            </Array>
          </mxGeometry>
        </mxCell>
        <mxCell id="N73i_R2ZQ_WmX0FleawG-35" style="edgeStyle=orthogonalEdgeStyle;rounded=0;orthogonalLoop=1;jettySize=auto;html=1;entryX=0;entryY=0.5;entryDx=0;entryDy=0;strokeColor=#66B2FF;" parent="1" source="N73i_R2ZQ_WmX0FleawG-4" target="N73i_R2ZQ_WmX0FleawG-6" edge="1">
          <mxGeometry relative="1" as="geometry" />
        </mxCell>
      </root>
    </mxGraphModel>
  </diagram>
</mxfile>
